<?xml version="1.0" encoding="utf-8"?>
<!-- Generator: Adobe Illustrator 16.0.0, SVG Export Plug-In . SVG Version: 6.00 Build 0)  -->
<!DOCTYPE svg PUBLIC "-//W3C//DTD SVG 1.1//EN" "http://www.w3.org/Graphics/SVG/1.1/DTD/svg11.dtd">
<svg version="1.1" id="Layer_1" xmlns="http://www.w3.org/2000/svg" xmlns:xlink="http://www.w3.org/1999/xlink" x="0px" y="0px"
	 width="300px" height="300px" viewBox="0 0 300 300" enable-background="new 0 0 300 300" xml:space="preserve">
<circle fill="#1FC9B1" cx="150.179" cy="149.343" r="150"/>
<text transform="matrix(1 0 0 1 71.5215 250.209)" fill="#FFFFFF" font-family="'Calibri'" font-size="300">B</text>
<path opacity="0.4" fill="#FFFFFF" d="M241.569,43.86c2.106,9.597,3.228,19.563,3.228,29.792
	c0,76.386-61.923,138.309-138.309,138.309c-33.938,0-65.015-12.231-89.081-32.517c13.627,62.064,68.925,108.517,135.082,108.517
	c76.386,0,138.309-61.923,138.309-138.309C290.797,107.205,271.669,69.231,241.569,43.86z"/>
<path opacity="0.3" fill="#FFFFFF" d="M287.451,122.363c-7.295-6.583-15.398-12.492-24.285-17.559
	c-66.361-37.827-150.823-14.696-188.651,51.666c-16.807,29.484-21.571,62.54-15.865,93.493
	C11.479,207.39-1.493,136.345,31.269,78.87c37.828-66.361,122.29-89.493,188.651-51.665
	C256.797,48.226,280.315,83.649,287.451,122.363z"/>
</svg>
