<?xml version="1.0" encoding="UTF-8" standalone="no"?>
<!-- Created with Inkscape (http://www.inkscape.org/) -->

<svg
   xmlns:dc="http://purl.org/dc/elements/1.1/"
   xmlns:cc="http://creativecommons.org/ns#"
   xmlns:rdf="http://www.w3.org/1999/02/22-rdf-syntax-ns#"
   xmlns:svg="http://www.w3.org/2000/svg"
   xmlns="http://www.w3.org/2000/svg"
   xmlns:sodipodi="http://sodipodi.sourceforge.net/DTD/sodipodi-0.dtd"
   xmlns:inkscape="http://www.inkscape.org/namespaces/inkscape"
   id="svg2"
   version="1.1"
   inkscape:version="0.91 r13725"
   xml:space="preserve"
   width="375"
   height="375"
   viewBox="0 0 375 375"
   sodipodi:docname="logo-mock - Copy.svg"><metadata
     id="metadata8"><rdf:RDF><cc:Work
         rdf:about=""><dc:format>image/svg+xml</dc:format><dc:type
           rdf:resource="http://purl.org/dc/dcmitype/StillImage" /><dc:title></dc:title></cc:Work></rdf:RDF></metadata><defs
     id="defs6"><clipPath
       clipPathUnits="userSpaceOnUse"
       id="clipPath16"><path
         d="M 0,300 300,300 300,0 0,0 0,300 Z"
         id="path18"
         inkscape:connector-curvature="0" /></clipPath><clipPath
       clipPathUnits="userSpaceOnUse"
       id="clipPath32"><path
         d="m 17.4067,256.14 273.3903,0 0,-244.1009 -273.3903,0 0,244.1009 z"
         id="path34"
         inkscape:connector-curvature="0" /></clipPath><clipPath
       clipPathUnits="userSpaceOnUse"
       id="clipPath48"><path
         d="m 13.0972,290.969 274.3538,0 0,-240.9329 -274.3538,0 0,240.9329 z"
         id="path50"
         inkscape:connector-curvature="0" /></clipPath></defs><sodipodi:namedview
     pagecolor="#ffffff"
     bordercolor="#666666"
     borderopacity="1"
     objecttolerance="10"
     gridtolerance="10"
     guidetolerance="10"
     inkscape:pageopacity="0"
     inkscape:pageshadow="2"
     inkscape:window-width="640"
     inkscape:window-height="480"
     id="namedview4"
     showgrid="false"
     inkscape:zoom="0.62933333"
     inkscape:cx="187.5"
     inkscape:cy="187.5"
     inkscape:window-x="0"
     inkscape:window-y="0"
     inkscape:window-maximized="0"
     inkscape:current-layer="g10" /><g
     id="g10"
     inkscape:groupmode="layer"
     inkscape:label="logo-mock - Copy"
     transform="matrix(1.25,0,0,-1.25,0,375)"><g
       id="g12"><g
         id="g14"
         clip-path="url(#clipPath16)"><g
           id="g20"
           transform="translate(300.1797,150.6567)"><path
             d="m 0,0 c 0,-82.843 -67.157,-150 -150,-150 -82.843,0 -150,67.157 -150,150 0,82.842 67.157,150 150,150 C -67.157,150 0,82.842 0,0"
             style="fill:#1fc9b1;fill-opacity:1;fill-rule:nonzero;stroke:none"
             id="path22"
             inkscape:connector-curvature="0" /></g><text
           transform="matrix(1,0,0,-1,71.5215,49.791)"
           style="font-variant:normal;font-weight:normal;font-stretch:normal;font-size:300px;font-family:Calibri;-inkscape-font-specification:Calibri;writing-mode:lr-tb;fill:#ffffff;fill-opacity:1;fill-rule:nonzero;stroke:none"
           id="text24"><tspan
             x="0"
             y="0"
             id="tspan26">B</tspan></text>
<g
           id="g28"><g
             id="g30" /><g
             id="g36"><g
               clip-path="url(#clipPath32)"
               id="g38"
               style="opacity:0.39999402"><g
                 transform="translate(241.5693,256.1401)"
                 id="g40"><path
                   d="m 0,0 c 2.106,-9.597 3.228,-19.563 3.228,-29.792 0,-76.386 -61.923,-138.309 -138.31,-138.309 -33.938,0 -65.015,12.231 -89.081,32.517 13.627,-62.065 68.925,-108.517 135.082,-108.517 76.386,0 138.309,61.923 138.309,138.309 C 49.228,-63.345 30.1,-25.371 0,0"
                   style="fill:#ffffff;fill-opacity:1;fill-rule:nonzero;stroke:none"
                   id="path42"
                   inkscape:connector-curvature="0" /></g></g></g></g><g
           id="g44"><g
             id="g46" /><g
             id="g52"><g
               clip-path="url(#clipPath48)"
               id="g54"
               style="opacity:0.30000299"><g
                 transform="translate(287.4512,177.6367)"
                 id="g56"><path
                   d="m 0,0 c -7.295,6.583 -15.398,12.492 -24.285,17.559 -66.361,37.827 -150.823,14.696 -188.651,-51.666 -16.807,-29.485 -21.571,-62.54 -15.865,-93.494 -47.172,42.575 -60.143,113.62 -27.381,171.094 37.828,66.361 122.289,89.493 188.651,51.665 C -30.654,74.138 -7.136,38.714 0,0"
                   style="fill:#ffffff;fill-opacity:1;fill-rule:nonzero;stroke:none"
                   id="path58"
                   inkscape:connector-curvature="0" /></g></g></g></g></g></g></g></svg>